<mxfile>
    <diagram id="mpSlv0D-25zA7CVjeN_R" name="Page-1">
        <mxGraphModel dx="911" dy="681" grid="1" gridSize="10" guides="1" tooltips="1" connect="1" arrows="1" fold="1" page="1" pageScale="1" pageWidth="827" pageHeight="1169" math="0" shadow="0">
            <root>
                <mxCell id="0"/>
                <mxCell id="1" parent="0"/>
                <mxCell id="13" style="rounded=0;orthogonalLoop=1;jettySize=auto;html=1;dashed=1;endArrow=none;endFill=0;" parent="1" edge="1">
                    <mxGeometry relative="1" as="geometry">
                        <mxPoint x="181" y="870" as="targetPoint"/>
                        <mxPoint x="181" y="110" as="sourcePoint"/>
                    </mxGeometry>
                </mxCell>
                <mxCell id="98" value="Alternative" style="shape=umlFrame;whiteSpace=wrap;html=1;swimlaneFillColor=none;fillColor=none;" vertex="1" parent="1">
                    <mxGeometry x="20" y="360" width="790" height="490" as="geometry"/>
                </mxCell>
                <mxCell id="94" value="" style="shape=folder;fontStyle=1;spacingTop=10;tabWidth=40;tabHeight=14;tabPosition=left;html=1;gradientColor=none;fillColor=none;" parent="1" vertex="1">
                    <mxGeometry x="118" y="130" width="452" height="160" as="geometry"/>
                </mxCell>
                <mxCell id="69" value="Alternative" style="shape=umlFrame;whiteSpace=wrap;html=1;swimlaneFillColor=none;fillColor=none;" parent="1" vertex="1">
                    <mxGeometry x="46" y="538" width="720" height="172" as="geometry"/>
                </mxCell>
                <mxCell id="93" value="" style="html=1;points=[];perimeter=orthogonalPerimeter;glass=1;gradientColor=none;fillColor=#FFFFFF;" parent="1" vertex="1">
                    <mxGeometry x="176" y="117" width="10" height="693" as="geometry"/>
                </mxCell>
                <mxCell id="12" style="rounded=0;orthogonalLoop=1;jettySize=auto;html=1;exitX=0.5;exitY=1;exitDx=0;exitDy=0;endArrow=none;endFill=0;dashed=1;" parent="1" source="82" edge="1">
                    <mxGeometry relative="1" as="geometry">
                        <mxPoint x="361" y="870" as="targetPoint"/>
                    </mxGeometry>
                </mxCell>
                <mxCell id="2" value="Application" style="html=1;fillColor=none;" parent="1" vertex="1">
                    <mxGeometry x="306" y="30" width="110" height="50" as="geometry"/>
                </mxCell>
                <mxCell id="4" value="Base données" style="html=1;fillColor=none;" parent="1" vertex="1">
                    <mxGeometry x="496" y="30" width="110" height="50" as="geometry"/>
                </mxCell>
                <mxCell id="5" value="Client" style="shape=umlActor;verticalLabelPosition=bottom;verticalAlign=top;html=1;" parent="1" vertex="1">
                    <mxGeometry x="166" y="20" width="30" height="60" as="geometry"/>
                </mxCell>
                <mxCell id="8" value="Livreur" style="shape=umlActor;verticalLabelPosition=bottom;verticalAlign=top;html=1;" parent="1" vertex="1">
                    <mxGeometry x="716" y="20" width="30" height="60" as="geometry"/>
                </mxCell>
                <mxCell id="15" style="rounded=0;orthogonalLoop=1;jettySize=auto;html=1;exitX=0.5;exitY=1;exitDx=0;exitDy=0;endArrow=none;endFill=0;dashed=1;" parent="1" source="84" edge="1">
                    <mxGeometry relative="1" as="geometry">
                        <mxPoint x="550" y="870" as="targetPoint"/>
                        <mxPoint x="550.5" y="80" as="sourcePoint"/>
                    </mxGeometry>
                </mxCell>
                <mxCell id="17" style="rounded=0;orthogonalLoop=1;jettySize=auto;html=1;exitX=0.5;exitY=0.5;exitDx=0;exitDy=0;exitPerimeter=0;dashed=1;endArrow=none;endFill=0;" parent="1" edge="1">
                    <mxGeometry relative="1" as="geometry">
                        <mxPoint x="732" y="870" as="targetPoint"/>
                        <mxPoint x="731.5" y="50" as="sourcePoint"/>
                    </mxGeometry>
                </mxCell>
                <mxCell id="23" value="" style="endArrow=none;startArrow=block;endFill=0;startFill=1;html=1;" parent="1" edge="1">
                    <mxGeometry width="160" relative="1" as="geometry">
                        <mxPoint x="183" y="322" as="sourcePoint"/>
                        <mxPoint x="358" y="322" as="targetPoint"/>
                    </mxGeometry>
                </mxCell>
                <mxCell id="24" value="Liste des entreprises" style="text;html=1;align=center;verticalAlign=middle;resizable=0;points=[];autosize=1;" parent="1" vertex="1">
                    <mxGeometry x="207" y="304" width="130" height="20" as="geometry"/>
                </mxCell>
                <mxCell id="40" value="" style="endArrow=block;startArrow=none;endFill=1;startFill=0;html=1;entryX=-0.1;entryY=0.287;entryDx=0;entryDy=0;entryPerimeter=0;" parent="1" target="84" edge="1">
                    <mxGeometry width="160" relative="1" as="geometry">
                        <mxPoint x="361" y="350" as="sourcePoint"/>
                        <mxPoint x="551" y="350" as="targetPoint"/>
                    </mxGeometry>
                </mxCell>
                <mxCell id="41" value="Enregister" style="text;html=1;align=center;verticalAlign=middle;resizable=0;points=[];autosize=1;" parent="1" vertex="1">
                    <mxGeometry x="423" y="330" width="70" height="20" as="geometry"/>
                </mxCell>
                <mxCell id="42" value="" style="endArrow=none;startArrow=classic;endFill=0;startFill=1;html=1;dashed=1;" parent="1" edge="1">
                    <mxGeometry width="160" relative="1" as="geometry">
                        <mxPoint x="367" y="380" as="sourcePoint"/>
                        <mxPoint x="734" y="380" as="targetPoint"/>
                    </mxGeometry>
                </mxCell>
                <mxCell id="43" value="Acceptation du Commande" style="text;html=1;align=center;verticalAlign=middle;resizable=0;points=[];autosize=1;" parent="1" vertex="1">
                    <mxGeometry x="561" y="360" width="160" height="20" as="geometry"/>
                </mxCell>
                <mxCell id="44" value="" style="endArrow=classic;startArrow=none;endFill=1;startFill=0;html=1;entryX=0.1;entryY=0.436;entryDx=0;entryDy=0;entryPerimeter=0;" parent="1" edge="1">
                    <mxGeometry width="160" relative="1" as="geometry">
                        <mxPoint x="359" y="407" as="sourcePoint"/>
                        <mxPoint x="545" y="406.9799999999999" as="targetPoint"/>
                    </mxGeometry>
                </mxCell>
                <mxCell id="45" value="Commande Accepter" style="text;html=1;align=center;verticalAlign=middle;resizable=0;points=[];autosize=1;" parent="1" vertex="1">
                    <mxGeometry x="395" y="387" width="130" height="20" as="geometry"/>
                </mxCell>
                <mxCell id="46" value="" style="endArrow=none;startArrow=classic;endFill=0;startFill=1;html=1;dashed=1;exitX=1.2;exitY=0.566;exitDx=0;exitDy=0;exitPerimeter=0;" parent="1" edge="1">
                    <mxGeometry width="160" relative="1" as="geometry">
                        <mxPoint x="182" y="455.26" as="sourcePoint"/>
                        <mxPoint x="353" y="455" as="targetPoint"/>
                    </mxGeometry>
                </mxCell>
                <mxCell id="47" value="Notifier" style="text;html=1;align=center;verticalAlign=middle;resizable=0;points=[];autosize=1;" parent="1" vertex="1">
                    <mxGeometry x="253" y="435" width="50" height="20" as="geometry"/>
                </mxCell>
                <mxCell id="50" value="" style="endArrow=classic;startArrow=none;endFill=1;startFill=0;html=1;" parent="1" edge="1">
                    <mxGeometry width="160" relative="1" as="geometry">
                        <mxPoint x="185" y="517" as="sourcePoint"/>
                        <mxPoint x="726" y="517" as="targetPoint"/>
                    </mxGeometry>
                </mxCell>
                <mxCell id="53" value="Code Validation" style="text;html=1;align=center;verticalAlign=middle;resizable=0;points=[];autosize=1;" parent="1" vertex="1">
                    <mxGeometry x="408" y="498" width="100" height="20" as="geometry"/>
                </mxCell>
                <mxCell id="55" value="" style="endArrow=none;startArrow=classic;endFill=0;startFill=1;html=1;dashed=1;" parent="1" edge="1">
                    <mxGeometry width="160" relative="1" as="geometry">
                        <mxPoint x="367" y="558" as="sourcePoint"/>
                        <mxPoint x="732" y="558" as="targetPoint"/>
                    </mxGeometry>
                </mxCell>
                <mxCell id="59" value="Validé la livraison" style="text;html=1;align=center;verticalAlign=middle;resizable=0;points=[];autosize=1;" parent="1" vertex="1">
                    <mxGeometry x="581" y="538" width="110" height="20" as="geometry"/>
                </mxCell>
                <mxCell id="65" value="" style="endArrow=classic;startArrow=none;endFill=1;startFill=0;html=1;dashed=1;entryX=0.2;entryY=0.762;entryDx=0;entryDy=0;entryPerimeter=0;" parent="1" edge="1">
                    <mxGeometry width="160" relative="1" as="geometry">
                        <mxPoint x="358" y="588" as="sourcePoint"/>
                        <mxPoint x="545" y="587.91" as="targetPoint"/>
                    </mxGeometry>
                </mxCell>
                <mxCell id="66" value="Livrer avec succès" style="text;html=1;align=center;verticalAlign=middle;resizable=0;points=[];autosize=1;" parent="1" vertex="1">
                    <mxGeometry x="405" y="568" width="110" height="20" as="geometry"/>
                </mxCell>
                <mxCell id="67" value="" style="endArrow=none;startArrow=classic;endFill=0;startFill=1;html=1;dashed=1;" parent="1" target="84" edge="1">
                    <mxGeometry width="160" relative="1" as="geometry">
                        <mxPoint x="367" y="432" as="sourcePoint"/>
                        <mxPoint x="552" y="432" as="targetPoint"/>
                    </mxGeometry>
                </mxCell>
                <mxCell id="68" value="Envoyer Au Client" style="text;html=1;align=center;verticalAlign=middle;resizable=0;points=[];autosize=1;" parent="1" vertex="1">
                    <mxGeometry x="406" y="412" width="110" height="20" as="geometry"/>
                </mxCell>
                <mxCell id="71" value="Peiment online" style="text;html=1;strokeColor=none;fillColor=none;align=center;verticalAlign=middle;whiteSpace=wrap;rounded=0;" parent="1" vertex="1">
                    <mxGeometry x="50" y="568" width="130" height="24" as="geometry"/>
                </mxCell>
                <mxCell id="72" value="Paiement en espèces" style="text;html=1;strokeColor=none;fillColor=none;align=center;verticalAlign=middle;whiteSpace=wrap;rounded=0;" parent="1" vertex="1">
                    <mxGeometry x="50" y="642" width="130" height="24" as="geometry"/>
                </mxCell>
                <mxCell id="73" value="" style="endArrow=none;startArrow=classic;endFill=0;startFill=1;html=1;dashed=1;exitX=1.586;exitY=0.792;exitDx=0;exitDy=0;exitPerimeter=0;" parent="1" edge="1">
                    <mxGeometry width="160" relative="1" as="geometry">
                        <mxPoint x="367.8600000000001" y="664.8159999999998" as="sourcePoint"/>
                        <mxPoint x="725" y="666" as="targetPoint"/>
                    </mxGeometry>
                </mxCell>
                <mxCell id="74" value="Validé la livraison" style="text;html=1;align=center;verticalAlign=middle;resizable=0;points=[];autosize=1;" parent="1" vertex="1">
                    <mxGeometry x="580" y="646" width="110" height="20" as="geometry"/>
                </mxCell>
                <mxCell id="75" value="" style="endArrow=classic;startArrow=none;endFill=1;startFill=0;html=1;dashed=1;" parent="1" edge="1">
                    <mxGeometry width="160" relative="1" as="geometry">
                        <mxPoint x="360" y="696" as="sourcePoint"/>
                        <mxPoint x="545" y="696" as="targetPoint"/>
                    </mxGeometry>
                </mxCell>
                <mxCell id="76" value="Livrer avec succès" style="text;html=1;align=center;verticalAlign=middle;resizable=0;points=[];autosize=1;" parent="1" vertex="1">
                    <mxGeometry x="404" y="676" width="110" height="20" as="geometry"/>
                </mxCell>
                <mxCell id="77" value="" style="endArrow=none;endFill=0;endSize=12;html=1;exitX=0.002;exitY=0.509;exitDx=0;exitDy=0;exitPerimeter=0;entryX=0.997;entryY=0.5;entryDx=0;entryDy=0;entryPerimeter=0;dashed=1;" parent="1" edge="1">
                    <mxGeometry width="160" relative="1" as="geometry">
                        <mxPoint x="47.440000000000055" y="600.098" as="sourcePoint"/>
                        <mxPoint x="763.8400000000001" y="599" as="targetPoint"/>
                    </mxGeometry>
                </mxCell>
                <mxCell id="78" value="" style="endArrow=classic;startArrow=none;endFill=1;startFill=0;html=1;" parent="1" edge="1">
                    <mxGeometry width="160" relative="1" as="geometry">
                        <mxPoint x="188" y="635" as="sourcePoint"/>
                        <mxPoint x="725" y="634.5" as="targetPoint"/>
                    </mxGeometry>
                </mxCell>
                <mxCell id="79" value="Payer" style="text;html=1;align=center;verticalAlign=middle;resizable=0;points=[];autosize=1;glass=1;" parent="1" vertex="1">
                    <mxGeometry x="434" y="612.5" width="50" height="20" as="geometry"/>
                </mxCell>
                <mxCell id="81" style="rounded=0;orthogonalLoop=1;jettySize=auto;html=1;exitX=0.5;exitY=0.5;exitDx=0;exitDy=0;exitPerimeter=0;dashed=1;endArrow=none;endFill=0;" parent="1" source="5" edge="1">
                    <mxGeometry relative="1" as="geometry">
                        <mxPoint x="181" y="110" as="targetPoint"/>
                        <mxPoint x="181" y="50" as="sourcePoint"/>
                    </mxGeometry>
                </mxCell>
                <mxCell id="82" value="" style="html=1;points=[];perimeter=orthogonalPerimeter;glass=1;gradientColor=none;fillColor=#FFFFFF;" parent="1" vertex="1">
                    <mxGeometry x="356" y="112" width="10" height="698" as="geometry"/>
                </mxCell>
                <mxCell id="83" style="rounded=0;orthogonalLoop=1;jettySize=auto;html=1;exitX=0.5;exitY=1;exitDx=0;exitDy=0;endArrow=none;endFill=0;dashed=1;" parent="1" source="2" target="82" edge="1">
                    <mxGeometry relative="1" as="geometry">
                        <mxPoint x="361" y="760" as="targetPoint"/>
                        <mxPoint x="361" y="80" as="sourcePoint"/>
                    </mxGeometry>
                </mxCell>
                <mxCell id="84" value="" style="html=1;points=[];perimeter=orthogonalPerimeter;glass=1;gradientColor=none;fillColor=#FFFFFF;" parent="1" vertex="1">
                    <mxGeometry x="546" y="165" width="10" height="645" as="geometry"/>
                </mxCell>
                <mxCell id="85" style="rounded=0;orthogonalLoop=1;jettySize=auto;html=1;exitX=0.5;exitY=1;exitDx=0;exitDy=0;endArrow=none;endFill=0;dashed=1;" parent="1" target="84" edge="1">
                    <mxGeometry relative="1" as="geometry">
                        <mxPoint x="551" y="760" as="targetPoint"/>
                        <mxPoint x="550.5" y="80" as="sourcePoint"/>
                    </mxGeometry>
                </mxCell>
                <mxCell id="87" value="" style="endArrow=block;startArrow=none;endFill=1;startFill=0;html=1;" parent="1" edge="1">
                    <mxGeometry width="160" relative="1" as="geometry">
                        <mxPoint x="181" y="350" as="sourcePoint"/>
                        <mxPoint x="356" y="350" as="targetPoint"/>
                    </mxGeometry>
                </mxCell>
                <mxCell id="89" value="" style="html=1;points=[];perimeter=orthogonalPerimeter;gradientColor=none;rotation=0;fillColor=#FFFFFF;" parent="1" vertex="1">
                    <mxGeometry x="176" y="319" width="10" height="40" as="geometry"/>
                </mxCell>
                <mxCell id="90" value="" style="edgeStyle=orthogonalEdgeStyle;html=1;align=left;spacingLeft=2;endArrow=block;rounded=0;exitX=-0.324;exitY=0.058;exitDx=0;exitDy=0;exitPerimeter=0;" parent="1" source="89" edge="1">
                    <mxGeometry relative="1" as="geometry">
                        <mxPoint x="181" y="299" as="sourcePoint"/>
                        <Array as="points">
                            <mxPoint x="140" y="321"/>
                            <mxPoint x="140" y="340"/>
                        </Array>
                        <mxPoint x="170" y="340" as="targetPoint"/>
                    </mxGeometry>
                </mxCell>
                <mxCell id="91" value="Faire un commade" style="text;html=1;align=center;verticalAlign=middle;resizable=0;points=[];autosize=1;" parent="1" vertex="1">
                    <mxGeometry x="210" y="329" width="120" height="20" as="geometry"/>
                </mxCell>
                <mxCell id="92" value="Choisir une entreprise" style="text;html=1;align=center;verticalAlign=middle;resizable=0;points=[];autosize=1;" parent="1" vertex="1">
                    <mxGeometry x="11" y="319" width="130" height="20" as="geometry"/>
                </mxCell>
                <mxCell id="95" value="package" style="text;html=1;align=center;verticalAlign=middle;resizable=0;points=[];autosize=1;fontSize=11;" parent="1" vertex="1">
                    <mxGeometry x="108" y="126" width="60" height="20" as="geometry"/>
                </mxCell>
                <mxCell id="97" value="Livraison" style="edgeStyle=orthogonalEdgeStyle;html=1;align=left;spacingLeft=2;endArrow=block;rounded=0;fontSize=11;" parent="1" edge="1">
                    <mxGeometry relative="1" as="geometry">
                        <mxPoint x="735" y="400" as="sourcePoint"/>
                        <Array as="points">
                            <mxPoint x="735" y="400"/>
                            <mxPoint x="760" y="400"/>
                            <mxPoint x="760" y="452"/>
                        </Array>
                        <mxPoint x="740" y="452.02857142857135" as="targetPoint"/>
                    </mxGeometry>
                </mxCell>
                <mxCell id="96" value="" style="html=1;points=[];perimeter=orthogonalPerimeter;gradientColor=none;fontSize=11;fillColor=#FFFFFF;" parent="1" vertex="1">
                    <mxGeometry x="726" y="380" width="10" height="310" as="geometry"/>
                </mxCell>
                <mxCell id="100" value="" style="endArrow=none;endFill=0;endSize=12;html=1;exitX=0.002;exitY=0.509;exitDx=0;exitDy=0;exitPerimeter=0;dashed=1;" edge="1" parent="1">
                    <mxGeometry width="160" relative="1" as="geometry">
                        <mxPoint x="20.000000000000057" y="741.098" as="sourcePoint"/>
                        <mxPoint x="810" y="738" as="targetPoint"/>
                    </mxGeometry>
                </mxCell>
                <mxCell id="101" value="Livraison" style="text;html=1;strokeColor=none;fillColor=none;align=center;verticalAlign=middle;whiteSpace=wrap;rounded=0;" vertex="1" parent="1">
                    <mxGeometry x="38" y="420" width="130" height="24" as="geometry"/>
                </mxCell>
                <mxCell id="102" value="Annulation du commande" style="text;html=1;strokeColor=none;fillColor=none;align=center;verticalAlign=middle;whiteSpace=wrap;rounded=0;" vertex="1" parent="1">
                    <mxGeometry x="38" y="750" width="130" height="24" as="geometry"/>
                </mxCell>
                <mxCell id="103" value="" style="endArrow=classic;startArrow=none;endFill=1;startFill=0;html=1;entryX=0.2;entryY=0.762;entryDx=0;entryDy=0;entryPerimeter=0;" edge="1" parent="1">
                    <mxGeometry width="160" relative="1" as="geometry">
                        <mxPoint x="190" y="769" as="sourcePoint"/>
                        <mxPoint x="355.5" y="768.9099999999999" as="targetPoint"/>
                    </mxGeometry>
                </mxCell>
                <mxCell id="104" value="annuler la commande" style="text;html=1;align=center;verticalAlign=middle;resizable=0;points=[];autosize=1;" vertex="1" parent="1">
                    <mxGeometry x="210.5" y="750" width="130" height="20" as="geometry"/>
                </mxCell>
                <mxCell id="106" value="" style="endArrow=classic;startArrow=none;endFill=1;startFill=0;html=1;entryX=0.2;entryY=0.762;entryDx=0;entryDy=0;entryPerimeter=0;" edge="1" parent="1">
                    <mxGeometry width="160" relative="1" as="geometry">
                        <mxPoint x="370" y="769" as="sourcePoint"/>
                        <mxPoint x="546" y="769.2399999999999" as="targetPoint"/>
                    </mxGeometry>
                </mxCell>
                <mxCell id="107" value="supprimer la commande" style="text;html=1;align=center;verticalAlign=middle;resizable=0;points=[];autosize=1;" vertex="1" parent="1">
                    <mxGeometry x="391" y="749.33" width="140" height="20" as="geometry"/>
                </mxCell>
                <mxCell id="108" value="&lt;b style=&quot;font-size: 14px;&quot;&gt;Authentification&lt;/b&gt;" style="text;html=1;strokeColor=none;fillColor=none;align=center;verticalAlign=middle;whiteSpace=wrap;rounded=0;fontSize=14;" vertex="1" parent="1">
                    <mxGeometry x="213" y="198" width="130" height="24" as="geometry"/>
                </mxCell>
            </root>
        </mxGraphModel>
    </diagram>
</mxfile>